<svg width="32" height="32" viewBox="0 0 32 32" fill="none" xmlns="http://www.w3.org/2000/svg">
<path d="M16 25.408L15.616 25.088C7.35999 18.368 5.12 16 5.12 12.16C5.12 8.95999 7.67999 6.39999 10.88 6.39999C13.504 6.39999 14.976 7.87199 16 9.024C17.024 7.87199 18.496 6.39999 21.12 6.39999C24.32 6.39999 26.88 8.95999 26.88 12.16C26.88 16 24.64 18.368 16.384 25.088L16 25.408ZM10.88 7.67999C8.38399 7.67999 6.39999 9.664 6.39999 12.16C6.39999 15.424 8.44799 17.6 16 23.744C23.552 17.6 25.6 15.424 25.6 12.16C25.6 9.664 23.616 7.67999 21.12 7.67999C18.88 7.67999 17.664 9.02399 16.704 10.112L16 10.944L15.296 10.112C14.336 9.02399 13.12 7.67999 10.88 7.67999Z" fill="black"/>
</svg>
