<?xml version="1.0"?>
<svg xmlns="http://www.w3.org/2000/svg" xmlns:xlink="http://www.w3.org/1999/xlink" xmlns:svgjs="http://svgjs.com/svgjs" version="1.1" width="512" height="512" x="0" y="0" viewBox="0 0 128 128" style="enable-background:new 0 0 512 512" xml:space="preserve" class=""><g><path xmlns="http://www.w3.org/2000/svg" d="m90 2.8c-15.2 0-27.5 12.2-28 27.9-.4 14.5 13.5 33.6 21.8 43.6 1.5 1.8 3.8 2.9 6.2 2.9s4.6-1.1 6.2-2.9c8.3-10.1 22.3-29.1 21.8-43.6-.5-15.7-12.8-27.9-28-27.9zm0 38c-5.5 0-10-4.5-10-10s4.5-10 10-10 10 4.5 10 10-4.5 10-10 10z" fill="#2196f3" data-original="#000000" style="" class=""/><path xmlns="http://www.w3.org/2000/svg" d="m12.4 98.2c.4 1.2 1.6 2 2.8 2 .3 0 .7-.1 1-.2l25.4-9.2 12.3 33.8c.4 1.2 1.6 2 2.8 2 .3 0 .7-.1 1-.2 1.6-.6 2.4-2.3 1.8-3.8l-13.3-36.8-10.6-29.1c-.6-1.6-2.3-2.4-3.8-1.8-1.6.6-2.4 2.3-1.8 3.8l9.6 26.3-25.4 9.2c-1.6.7-2.4 2.4-1.8 4z" fill="#2196f3" data-original="#000000" style="" class=""/><path xmlns="http://www.w3.org/2000/svg" d="m56.2 57.7-6.6 2.4-2.7-7.5c-.6-1.6-2.3-2.4-3.8-1.8-1.6.6-2.4 2.3-1.8 3.8l3.7 10.4c.4 1.2 1.6 2 2.8 2 .3 0 .7-.1 1-.2l9.4-3.4c1.6-.6 2.4-2.3 1.8-3.8s-2.3-2.4-3.8-1.9z" fill="#2196f3" data-original="#000000" style="" class=""/><path xmlns="http://www.w3.org/2000/svg" d="m49.1 76.2 16.1 44.1c.4 1.2 1.6 2 2.8 2 .3 0 .7-.1 1-.2 1.6-.6 2.4-2.3 1.8-3.8l-6.5-17.9 31.9-11.6 2.4 6.6c.4 1.2 1.6 2 2.8 2 .3 0 .7-.1 1-.2 1.6-.6 2.4-2.3 1.8-3.8l-2.4-6.6 6.6-2.4c1.6-.6 2.4-2.3 1.8-3.8-.6-1.6-2.3-2.4-3.8-1.8l-9.4 3.4-34.7 12.7-6.5-17.9 11.2-4.2c1.6-.6 2.3-2.3 1.8-3.9-.6-1.6-2.3-2.3-3.9-1.8l-14.1 5.2c-.222.088-1.1.464-1.593 1.449-.585 1.164-.176 2.272-.107 2.451z" fill="#2196f3" data-original="#000000" style="" class=""/></g></svg>
